<?xml version="1.0" standalone="no"?><!DOCTYPE svg PUBLIC "-//W3C//DTD SVG 1.1//EN" "http://www.w3.org/Graphics/SVG/1.1/DTD/svg11.dtd"><svg t="1710438117816" class="icon" viewBox="0 0 1024 1024" version="1.1" xmlns="http://www.w3.org/2000/svg" p-id="11748" xmlns:xlink="http://www.w3.org/1999/xlink" width="200" height="200"><path d="M920.202 357.934c-27.944-31.878-70.162-47.558-115.824-43.022-39.87 3.964-79.696 22.84-112.144 53.15-32.446 30.31-54.606 69.34-62.396 109.896-8.922 46.452 1.988 91.378 29.932 123.256s70.162 47.56 115.826 43.02c39.87-3.962 79.696-22.836 112.142-53.146 32.448-30.312 54.606-69.34 62.396-109.898 8.926-46.454-1.986-91.378-29.932-123.256z m-71.904 188.158c-47.844 44.692-112.732 51.142-144.936 14.406-32.204-36.736-19.524-102.748 28.318-147.44 47.844-44.692 112.734-51.142 144.938-14.406s19.522 102.746-28.32 147.44z" fill="#FFC34C" p-id="11749"></path><path d="M807.818 573.342c-39.306 17.812-80.742 14.206-104.458-12.846-32.204-36.736-19.524-102.748 28.318-147.44 47.844-44.692 112.734-51.142 144.938-14.406 5.31 6.056 9.374 12.922 12.286 20.342a408.726 408.726 0 0 0 12.64-78.36c-26.544-20.064-60.744-29.34-97.164-25.722-39.87 3.964-79.696 22.84-112.144 53.15-32.446 30.31-54.606 69.34-62.396 109.896-8.922 46.452 1.988 91.378 29.932 123.256 17.714 20.208 41.174 33.88 67.6 40.046 29.86-18.048 56.958-41.022 80.448-67.916z" fill="#F9BB32" p-id="11750"></path><path d="M606.796 709.814H374.368c-11.046 0-20-8.954-20-20v-98.98h272.428v98.98c0 11.046-8.954 20-20 20z" fill="#FFEACF" p-id="11751"></path><path d="M454.59 683.948v-93.114h-100.224v93.114c0 14.286 11.218 25.866 25.056 25.866h100.224c-13.838 0-25.056-11.58-25.056-25.866z" fill="#FFD59A" p-id="11752"></path><path d="M492.652 686.212c184.782 0 334.576-166.582 334.576-372.07H158.074c0 205.488 149.796 372.07 334.578 372.07z" fill="#FFEACF" p-id="11753"></path><path d="M827.228 314.142H158.074v-80.868c0-11.046 8.954-20 20-20h629.154c11.046 0 20 8.954 20 20v80.868z" fill="#DB9C2E" p-id="11754"></path><path d="M258.298 314.142H158.074c0 205.488 149.796 372.07 334.578 372.07 17.032 0 33.764-1.426 50.112-4.156-161.008-26.894-284.466-181.366-284.466-367.914z" fill="#FFD59A" p-id="11755"></path><path d="M792.164 267.88h-197.792a12 12 0 0 1 0-24h197.792a12 12 0 0 1 0 24zM541.606 267.88h-61.958a12 12 0 0 1 0-24h61.958a12 12 0 0 1 0 24z" fill="#F9BB32" p-id="11756"></path><path d="M711.01 523.364a12.004 12.004 0 0 1-7.41-21.448c57.38-44.95 66.018-152.152 66.098-153.23a12 12 0 0 1 23.934 1.766c-0.354 4.828-9.448 118.826-75.23 170.36a11.956 11.956 0 0 1-7.392 2.552z" fill="#FCF9DE" p-id="11757"></path><path d="M424.352 518.874m-31.566 0a31.566 31.566 0 1 0 63.132 0 31.566 31.566 0 1 0-63.132 0Z" fill="#FFD59A" p-id="11758"></path><path d="M513 584.33m-31.566 0a31.566 31.566 0 1 0 63.132 0 31.566 31.566 0 1 0-63.132 0Z" fill="#FFD59A" p-id="11759"></path><path d="M278.074 213.274h-100c-11.046 0-20 8.954-20 20v80.87h100v-80.87c0-11.046 8.954-20 20-20z" fill="#BF6C0D" p-id="11760"></path><path d="M798.644 767.506H166.382c-12.194 0-24.06-3.51-33.82-10.002l-64.05-42.61c-10.852-7.22-5.104-22.556 8.454-22.556H888.06c13.558 0 19.308 15.336 8.454 22.556l-64.05 42.61c-9.76 6.492-21.626 10.002-33.82 10.002z" fill="#DB9C2E" p-id="11761"></path><path d="M718.294 810.726h-466.44c-11.046 0-20-8.954-20-20V739.32h506.44v51.406c0 11.046-8.954 20-20 20z" fill="#DB9C2E" p-id="11762"></path><path d="M332.078 785.67V739.32h-100.224v46.35c0 13.836 11.218 25.056 25.056 25.056h100.224c-13.838 0-25.056-11.218-25.056-25.056z" fill="#BF6C0D" p-id="11763"></path><path d="M266.606 737.44c-12.192 0-24.058-3.508-33.82-10.002L180.028 692.34h-103.06c-13.56 0-19.306 15.336-8.456 22.556l64.05 42.61c9.76 6.492 21.626 10.002 33.82 10.002h632.262c12.196 0 24.06-3.508 33.82-10.002l30.16-20.066H266.606z" fill="#BF6C0D" p-id="11764"></path><path d="M692.484 708.208a134.34 98.97 0 1 0 268.68 0 134.34 98.97 0 1 0-268.68 0Z" fill="#BF6C0D" p-id="11765"></path><path d="M943.626 720.208h-116.8a12 12 0 0 1 0-24h116.8a12 12 0 0 1 0 24z" fill="#A56021" p-id="11766"></path><path d="M727.564 663.108c0 54.66 60.146 98.97 134.338 98.97 37.084 0 70.66-11.07 94.968-28.97-14.988 42.606-67.528 74.072-130.046 74.072-74.194 0-134.338-44.31-134.338-98.97 0-27.338 15.046-52.088 39.37-70a74.74 74.74 0 0 0-4.292 24.898z" fill="#A56021" p-id="11767"></path><path d="M610.622764 697.461248a134.34 98.97 76.73 1 0 192.654843-45.435177 134.34 98.97 76.73 1 0-192.654843 45.435177Z" fill="#A56021" p-id="11768"></path><path d="M706.96 686.728a12 12 0 0 1-11.67-9.248l-26.808-113.682a12 12 0 0 1 8.926-14.434 11.994 11.994 0 0 1 14.434 8.926l26.808 113.682a12 12 0 0 1-11.69 14.756z" fill="#8C4C17" p-id="11769"></path><path d="M773.65 760.984c-53.202 12.546-110.134-35.822-127.162-108.036-8.512-36.094-5.442-71.314 6.4-99.082-38.028 24.368-56.594 82.726-42.244 143.576 17.03 72.212 73.962 120.582 127.162 108.036 26.608-6.276 47.244-26.6 59.094-54.386a74.746 74.746 0 0 1-23.25 9.892z" fill="#8C4C17" p-id="11770"></path></svg>